<svg xmlns="http://www.w3.org/2000/svg" viewBox="0 0 1200 630" role="img" aria-label="Cover image: a search box above a privacy policy document, with two of its lines highlighted as matches">
  <defs>
    <linearGradient id="bg" x1="0" y1="0" x2="1" y2="1">
      <stop offset="0" stop-color="#121b2c"/>
      <stop offset="1" stop-color="#1f2c3f"/>
    </linearGradient>
    <radialGradient id="glow" cx="0.8" cy="0.4" r="0.6">
      <stop offset="0" stop-color="#38bdf8" stop-opacity="0.22"/>
      <stop offset="1" stop-color="#38bdf8" stop-opacity="0"/>
    </radialGradient>
  </defs>
  <rect width="1200" height="630" fill="url(#bg)"/>
  <rect width="1200" height="630" fill="url(#glow)"/>
  <g fill="none" stroke="#38bdf8" stroke-width="3">
    <rect x="720" y="150" width="360" height="330" rx="14" stroke-opacity="0.35"/>
  </g>
  <rect x="750" y="170" width="280" height="44" rx="10" fill="none" stroke="#7dd3fc" stroke-width="3"/>
  <g fill="none" stroke="#7dd3fc" stroke-width="3" stroke-linecap="round">
    <circle cx="777" cy="189" r="9"/>
    <path d="M784 196 L793 205"/>
  </g>
  <rect x="812" y="186" width="128" height="12" rx="6" fill="#38bdf8" opacity="0.85"/>
  <rect x="750" y="232" width="280" height="222" rx="10" fill="none" stroke="#7dd3fc" stroke-width="3"/>
  <g fill="#38bdf8" opacity="0.2">
    <rect x="764" y="275" width="252" height="22" rx="6"/>
    <rect x="764" y="353" width="252" height="22" rx="6"/>
  </g>
  <g fill="#94a3b8" opacity="0.32">
    <rect x="776" y="252" width="212" height="8" rx="4"/>
    <rect x="776" y="304" width="188" height="8" rx="4"/>
    <rect x="776" y="330" width="222" height="8" rx="4"/>
    <rect x="776" y="382" width="164" height="8" rx="4"/>
    <rect x="776" y="408" width="204" height="8" rx="4"/>
  </g>
  <g fill="#7dd3fc">
    <rect x="776" y="282" width="142" height="8" rx="4"/>
    <rect x="776" y="360" width="176" height="8" rx="4"/>
  </g>
  <g font-family="'Segoe UI', Tahoma, sans-serif">
    <text x="80" y="200" fill="#7dd3fc" font-size="26" font-weight="800" letter-spacing="8">PRIVACY</text>
    <text x="80" y="280" fill="#f8fafc" font-size="52" font-weight="800">Read a privacy policy</text>
    <text x="80" y="345" fill="#f8fafc" font-size="52" font-weight="800">in five minutes</text>
    <text x="80" y="422" fill="#e2e8f0" font-size="26" font-weight="600">Search it. Do not read it.</text>
    <text x="80" y="545" fill="#94a3b8" font-size="24" font-weight="700">krunalkumar.dpdns.org &#183; Blog</text>
  </g>
</svg>
