<svg width="760" height="260" viewBox="0 0 760 260" role="img" aria-labelledby="d-what-running-internship-cohorts-taught-me-about-mentorship-diagram1" xmlns="http://www.w3.org/2000/svg">
  <title id="d-what-running-internship-cohorts-taught-me-about-mentorship-diagram1">Diagram: many applicants funnel down to a small committed cohort, filtered by initiative, clarity, and honesty</title>
                  <rect width="760" height="260" rx="18" fill="#1b2735"/>
                  <text x="30" y="45" fill="#7dd3fc" font-family="'Segoe UI',sans-serif" font-size="18" font-weight="800" letter-spacing="3">SELECTION FUNNEL</text>
                  <g font-family="'Segoe UI',sans-serif">
                    <rect x="30" y="70" width="220" height="150" rx="12" fill="none" stroke="#334155" stroke-width="2"/>
                    <text x="140" y="100" fill="#e2e8f0" font-size="15" font-weight="700" text-anchor="middle">Many applicants</text>
                    <circle cx="70" cy="140" r="8" fill="#475569"/><circle cx="100" cy="140" r="8" fill="#475569"/>
                    <circle cx="130" cy="140" r="8" fill="#475569"/><circle cx="160" cy="140" r="8" fill="#475569"/>
                    <circle cx="190" cy="140" r="8" fill="#475569"/><circle cx="220" cy="140" r="8" fill="#475569"/>
                    <circle cx="85" cy="175" r="8" fill="#475569"/><circle cx="115" cy="175" r="8" fill="#475569"/>
                    <circle cx="145" cy="175" r="8" fill="#475569"/><circle cx="175" cy="175" r="8" fill="#475569"/>
                    <path d="M 260 145 L 320 145" stroke="#7dd3fc" stroke-width="3"/>
                    <path d="M 312 138 L 326 145 L 312 152 Z" fill="#7dd3fc"/>
                    <text x="390" y="120" fill="#7dd3fc" font-size="13" font-weight="700" text-anchor="middle">initiative</text>
                    <text x="390" y="150" fill="#7dd3fc" font-size="13" font-weight="700" text-anchor="middle">clarity</text>
                    <text x="390" y="180" fill="#7dd3fc" font-size="13" font-weight="700" text-anchor="middle">honesty</text>
                    <path d="M 460 145 L 520 145" stroke="#7dd3fc" stroke-width="3"/>
                    <path d="M 512 138 L 526 145 L 512 152 Z" fill="#7dd3fc"/>
                    <rect x="540" y="95" width="190" height="100" rx="12" fill="none" stroke="#7dd3fc" stroke-width="2"/>
                    <text x="635" y="125" fill="#f8fafc" font-size="15" font-weight="700" text-anchor="middle">Small cohort</text>
                    <circle cx="595" cy="160" r="11" fill="#7dd3fc"/><circle cx="635" cy="160" r="11" fill="#7dd3fc"/>
                    <circle cx="675" cy="160" r="11" fill="#7dd3fc"/>
                  </g>
                </svg>
